<svg width="70" height="70" viewBox="0 0 70 70" fill="none" xmlns="http://www.w3.org/2000/svg">
<path d="M0 7.6789C0 3.43823 3.43823 0 7.6789 0H61.4312C65.6719 0 69.1101 3.43823 69.1101 7.6789V61.4312C69.1101 65.6719 65.6719 69.1101 61.4312 69.1101H7.6789C3.43823 69.1101 0 65.6719 0 61.4312V7.6789Z" fill="#2196F3"/>
<path d="M40.3115 21.1152H53.7496V24.9547H40.3115V21.1152ZM29.776 33.4552C30.8991 32.9081 33.4293 31.6622 33.4293 27.9706C33.4293 21.0269 25.8425 21.1172 24.4392 21.1172H11.5156V47.9933H25.0017C26.1247 47.9914 34.5523 47.6746 34.5523 40.3106C34.5523 35.5592 31.4616 34.0043 29.776 33.4552ZM17.2748 25.7763H22.8958C23.4563 25.7763 27.1095 25.976 27.1095 28.7941C27.1095 31.6104 24.301 32.0845 23.4582 32.0845H17.2748V25.7763ZM23.679 43.3284H17.2153V35.9259H23.679C25.0823 35.9259 28.1731 36.3809 28.1731 39.7654C28.1731 43.146 24.2396 43.3284 23.679 43.3284ZM50.751 42.9905C49.8583 43.5453 48.9675 43.8275 47.7773 43.8275C43.312 43.8275 42.4232 40.0629 42.4232 38.3947H57.589C57.589 36.7264 57.589 35.494 57.2915 34.1022C56.992 32.7104 54.959 26.8744 47.4797 26.8744C37.0268 26.8744 36.472 36.0469 36.472 37.4329C36.472 38.8209 36.7715 40.491 37.3686 41.6006C37.9617 42.9905 38.5569 44.1039 39.4495 44.9333C40.3403 45.7683 41.5286 46.5957 42.7188 47.1544C44.2047 47.713 45.6925 47.9914 47.1803 47.9914C49.5569 47.9914 51.6417 47.4385 53.4251 46.3251C55.2124 45.2135 56.4007 43.5453 57.2915 41.3223H52.2368C51.9393 41.879 51.6417 42.4319 50.751 42.9905ZM47.4797 30.7657C50.3939 30.7657 51.6417 33.8219 51.9373 35.2079H42.4232C42.4232 34.9334 43.1354 30.7657 47.4797 30.7657Z" fill="white"/>
</svg>
