<svg width="39" height="39" viewBox="0 0 39 39" fill="none" xmlns="http://www.w3.org/2000/svg">
<g clip-path="url(#clip0_881_1273)">
<path d="M38.0673 5.57031H36.2148V11.14H38.0673V5.57031Z" fill="black"/>
<path d="M36.2158 24.1309H34.3633V35.2824H36.2158V24.1309Z" fill="black"/>
<path d="M36.2158 3.70508H34.3633V5.56977H36.2158V3.70508Z" fill="black"/>
<path d="M34.3647 35.2832H32.5V37.1357H34.3647V35.2832Z" fill="black"/>
<path d="M34.3647 20.4258H32.5V24.1308H34.3647V20.4258Z" fill="black"/>
<path d="M36.2181 11.1387H30.6484V12.9912H36.2181V11.1387Z" fill="black"/>
<path d="M34.3647 1.85156H32.5V3.70406H34.3647V1.85156Z" fill="black"/>
<path d="M32.5009 18.5625H30.6484V20.4272H32.5009V18.5625Z" fill="black"/>
<path d="M32.4998 37.1348H6.50391V38.9995H32.4998V37.1348Z" fill="black"/>
<path d="M30.6455 7.42188H28.793V11.1391H30.6455V7.42188Z" fill="black"/>
<path d="M28.7925 5.57031H10.2188V7.42281H28.7925V5.57031Z" fill="black"/>
<path d="M26.9306 24.1309H25.0781V31.5652H26.9306V24.1309Z" fill="black"/>
<path d="M25.0756 31.5664H23.2109V33.4189H25.0756V31.5664Z" fill="black"/>
<path d="M25.0756 22.2793H23.2109V24.1318H25.0756V22.2793Z" fill="black"/>
<path d="M23.2113 33.418H15.7891V35.2827H23.2113V33.418Z" fill="black"/>
<path d="M21.3587 24.1309H17.6416V25.9955H15.7891V29.7127H17.6416V31.5652H21.3587V29.7127H23.2113V25.9955H21.3587V24.1309Z" fill="black"/>
<path d="M23.2113 20.4258H15.7891V22.2783H23.2113V20.4258Z" fill="black"/>
<path d="M15.79 31.5664H13.9375V33.4189H15.79V31.5664Z" fill="black"/>
<path d="M15.79 22.2793H13.9375V24.1318H15.79V22.2793Z" fill="black"/>
<path d="M13.9389 24.1309H12.0742V31.5652H13.9389V24.1309Z" fill="black"/>
<path d="M12.0727 14.8569H15.7898V18.5619H23.212V14.8569H26.9292V18.5619H30.6464V16.7094H28.7939V12.9922H21.3595V16.7094H17.6423V12.9922H10.2202V16.7094H8.35547V18.5619H12.0727V14.8569Z" fill="black"/>
<path d="M10.2202 7.42188H8.35547V11.1391H10.2202V7.42188Z" fill="black"/>
<path d="M32.4998 0H6.50391V1.8525H32.4998V0Z" fill="black"/>
<path d="M8.35641 18.5625H6.50391V20.4272H8.35641V18.5625Z" fill="black"/>
<path d="M6.50484 35.2832H4.65234V37.1357H6.50484V35.2832Z" fill="black"/>
<path d="M6.50484 20.4258H4.65234V24.1308H6.50484V20.4258Z" fill="black"/>
<path d="M8.35484 11.1387H2.78516V12.9912H8.35484V11.1387Z" fill="black"/>
<path d="M6.50484 1.85156H4.65234V3.70406H6.50484V1.85156Z" fill="black"/>
<path d="M4.64984 24.1309H2.78516V35.2824H4.64984V24.1309Z" fill="black"/>
<path d="M4.64984 3.70508H2.78516V5.56977H4.64984V3.70508Z" fill="black"/>
<path d="M2.78609 5.57031H0.933594V11.14H2.78609V5.57031Z" fill="black"/>
</g>
<defs>
<clipPath id="clip0_881_1273">
<rect width="39" height="39" fill="white"/>
</clipPath>
</defs>
</svg>
