<svg width="42" height="42" viewBox="0 0 42 42" fill="none" xmlns="http://www.w3.org/2000/svg">
<g clip-path="url(#clip0_858_134)">
<path d="M39.9969 30.0041H33.9988V27.996H35.9937V26.001H6.00312V27.996H8.00469V30.0041H2L2 42.0004H39.9969V30.0041ZM9.99312 27.996H31.9906V30.0041H9.99312V27.996ZM38.0019 40.0054H3.995L3.995 31.9991H38.0019V40.0054Z" fill="#000001"/>
<path d="M38.0003 1.99512H35.9922V26.0007H38.0003V1.99512Z" fill="#000001"/>
<path d="M33.9973 33.9941H23.9961V36.0023H33.9973V33.9941Z" fill="#000001"/>
<path d="M25.9911 14.0039H23.9961V15.9989H25.9911V14.0039Z" fill="#000001"/>
<path d="M25.9911 10.001H23.9961V11.996H25.9911V10.001Z" fill="#000001"/>
<path d="M23.9981 15.999H18V17.994H23.9981V15.999Z" fill="#000001"/>
<path d="M18.0003 14.0039H15.9922V15.9989H18.0003V14.0039Z" fill="#000001"/>
<path d="M18.0003 10.001H15.9922V11.996H18.0003V10.001Z" fill="#000001"/>
<path d="M8.00391 24.0054H34.0045V4.00293L8.00391 4.00293V24.0054ZM9.99234 5.99793L31.9898 5.99793V21.9973H9.99234V5.99793Z" fill="#000001"/>
<path d="M12.0031 33.9941H8V37.9973H12.0031V33.9941Z" fill="#000001"/>
<path d="M35.9945 0L6.00391 0V1.995L35.9945 1.995V0Z" fill="#000001"/>
<path d="M6.00422 1.99512H3.99609L3.99609 26.0007H6.00422L6.00422 1.99512Z" fill="#000001"/>
</g>
<defs>
<clipPath id="clip0_858_134">
<rect width="42" height="42" fill="white"/>
</clipPath>
</defs>
</svg>
