<svg width="70" height="70" viewBox="0 0 70 70" fill="none" xmlns="http://www.w3.org/2000/svg">
<g clip-path="url(#clip0_823_1224)">
<path d="M34.5615 2.29492C52.379 2.29492 66.7949 16.7109 66.7949 34.5013C66.7949 52.2918 52.379 66.7347 34.5615 66.7347C16.7441 66.7347 2.32812 52.3188 2.32812 34.5283C2.32812 16.7379 16.7441 2.29492 34.5615 2.29492Z" fill="#E74D89"/>
<path d="M34.555 69.0291C15.4958 69.0291 0 53.5603 0 34.528C0 15.4688 15.4958 0 34.555 0C53.6143 0 69.1101 15.4688 69.1101 34.5011C69.1101 53.5333 53.6143 69.0291 34.555 69.0291ZM63.6839 39.2254C62.685 38.9014 54.5592 36.4988 45.2995 37.9566C49.16 48.539 50.7257 57.1778 51.0227 58.9595C57.6637 54.5052 62.3881 47.4322 63.6839 39.2254ZM46.0824 61.6861C45.6505 59.0945 43.9227 50.0778 39.7923 39.3334C39.7383 39.3604 39.6573 39.3873 39.6033 39.3873C22.9467 45.1915 16.9806 56.7189 16.4406 57.7987C21.4349 61.6862 27.725 64.0078 34.555 64.0078C38.6315 64.0348 42.5459 63.1979 46.0824 61.6861ZM12.6342 54.2622C13.3091 53.1284 21.4079 39.7383 36.6337 34.798C37.0117 34.663 37.4166 34.555 37.7946 34.4471C37.0657 32.7733 36.2558 31.0995 35.3919 29.4528C20.652 33.8531 6.34409 33.6642 5.04828 33.6372C5.04828 33.9341 5.02128 34.2311 5.02128 34.528C5.04828 42.114 7.90987 49.025 12.6342 54.2622ZM5.66919 28.5079C6.992 28.5349 19.1403 28.5889 32.9623 24.9174C28.076 16.2247 22.7847 8.93572 22.0288 7.88287C13.741 11.7703 7.58591 19.3832 5.66919 28.5079ZM27.644 5.88516C28.4539 6.965 33.8261 14.254 38.6585 23.1357C49.16 19.1942 53.5873 13.2551 54.1272 12.4992C48.917 7.88287 42.06 5.07527 34.555 5.07527C32.1794 5.07527 29.8577 5.37223 27.644 5.88516ZM57.3938 15.9007C56.7729 16.7376 51.8326 23.0817 40.9261 27.536C41.601 28.9398 42.2759 30.3706 42.8968 31.8014C43.1128 32.3144 43.3288 32.8273 43.5448 33.3132C53.3713 32.0714 63.1169 34.0691 64.0888 34.2581C64.0078 27.3201 61.5242 20.922 57.3938 15.9007Z" fill="#B2215A"/>
</g>
<defs>
<clipPath id="clip0_823_1224">
<rect width="69.1101" height="69.1101" fill="white"/>
</clipPath>
</defs>
</svg>
