<svg width="42" height="42" viewBox="0 0 42 42" fill="none" xmlns="http://www.w3.org/2000/svg">
<g clip-path="url(#clip0_871_1151)">
<path d="M38.01 8.00625V0H18.0075V1.995H10.0012V4.00312H4.00312V18.0075H2.00812V21.9975H0V42H42V8.00625H38.01ZM10.0012 40.005H2.00812V27.9956H10.0012V40.005ZM10.0012 26.0006H6.01125V5.99813H10.0012V26.0006ZM12.0094 4.00312H18.0075V5.99813H14.0044V26.0006H12.0094V4.00312ZM18.0075 8.00625V26.0006H16.0125V8.00625H18.0075ZM20.0025 40.005H12.0094V27.9956H20.0025V40.005ZM40.005 40.005H22.0106V26.0006H20.0025V1.995H36.0019V8.00625H30.0038V10.0012H40.005V40.005Z" fill="#000001"/>
<path d="M36.0028 27.9961H34.0078V30.0042H36.0028V27.9961Z" fill="#000001"/>
<path d="M36.0028 24.0059H34.0078V26.0009H36.0028V24.0059Z" fill="#000001"/>
<path d="M34.007 30.0039H30.0039V31.9989H34.007V30.0039Z" fill="#000001"/>
<path d="M30.0028 27.9961H28.0078V30.0042H30.0028V27.9961Z" fill="#000001"/>
<path d="M30.0028 24.0059H28.0078V26.0009H30.0028V24.0059Z" fill="#000001"/>
<path d="M30.0028 10.001H28.0078V14.0041H30.0028V10.001Z" fill="#000001"/>
<path d="M28.0081 14.0039H26V18.007H28.0081V14.0039Z" fill="#000001"/>
<path d="M25.9989 18.0078H24.0039V21.9978H25.9989V18.0078Z" fill="#000001"/>
<path d="M25.9989 4.00293H24.0039V5.99793H25.9989V4.00293Z" fill="#000001"/>
<path d="M24.0067 21.9971H22.0117V26.0002H24.0067V21.9971Z" fill="#000001"/>
<path d="M18.007 31.999H14.0039V36.0021H18.007V31.999Z" fill="#000001"/>
<path d="M8.00703 31.999H4.00391V36.0021H8.00703V31.999Z" fill="#000001"/>
</g>
<defs>
<clipPath id="clip0_871_1151">
<rect width="42" height="42" fill="white"/>
</clipPath>
</defs>
</svg>
