<svg width="75" height="56" viewBox="0 0 75 56" fill="none" xmlns="http://www.w3.org/2000/svg">
<g clip-path="url(#clip0_823_1227)">
<path d="M5.06546 55.2865H16.8849V26.8047L0 14.2393V50.2603C0 53.0414 2.27101 55.2865 5.06546 55.2865Z" fill="#4285F4"/>
<path d="M57.4023 55.2865H69.2217C72.0246 55.2865 74.2872 53.0331 74.2872 50.2603V14.2393L57.4023 26.8047" fill="#34A853"/>
<path d="M57.4023 5.0258V26.8059L74.2872 14.2405V7.53889C74.2872 1.32317 67.1365 -2.22029 62.1301 1.50747" fill="#FBBC04"/>
<path d="M16.8789 26.8055V5.02539L37.1407 20.104L57.4025 5.02539V26.8055L37.1407 41.8841" fill="#EA4335"/>
<path d="M0 7.53889V14.2405L16.8849 26.8059V5.0258L12.1571 1.50747C7.14229 -2.22029 0 1.32317 0 7.53889Z" fill="#C5221F"/>
</g>
<defs>
<clipPath id="clip0_823_1227">
<rect width="74.2934" height="55.2881" fill="white"/>
</clipPath>
</defs>
</svg>
