<svg width="101" height="132" viewBox="0 0 101 132" fill="none" xmlns="http://www.w3.org/2000/svg">
<path d="M0.00141287 75.4463L6.27142 75.4463L6.27142 31.4325L0.00141672 31.4325L0.00141287 75.4463Z" fill="white"/>
<path d="M12.5813 18.8514L75.405 18.8514L75.405 25.1214L81.7163 25.1214L81.7163 18.8514L87.9863 18.8514L87.9863 0.00011364L2.35214e-06 0.000105948L7.04113e-07 18.8514L6.27 18.8514L6.27 31.4326L12.5813 31.4326L12.5813 18.8514ZM12.5813 6.27011L25.1213 6.27011L25.1213 12.5814L12.5813 12.5814L12.5813 6.27011Z" fill="white"/>
<path d="M6.27266 81.7158L12.5839 81.7158L12.5839 75.4458L6.27266 75.4458L6.27266 81.7158Z" fill="white"/>
<path d="M18.853 75.4463L25.123 75.4463L25.123 56.5538L18.853 56.5538L18.853 75.4463Z" fill="white"/>
<path d="M12.583 87.9863L25.123 87.9863L25.123 81.7163L12.583 81.7163L12.583 87.9863Z" fill="white"/>
<path d="M37.7045 75.4463L43.9745 75.4463L43.9745 56.5538L37.7045 56.5538L37.7045 75.4463Z" fill="white"/>
<path d="M56.5539 75.4463L62.8652 75.4463L62.8652 56.5538L56.5539 56.5538L56.5539 75.4463Z" fill="white"/>
<path d="M62.8652 87.9867L25.1214 87.9867L25.1214 94.298L56.5539 94.298L56.5539 125.73L62.8652 125.73L62.8652 87.9867Z" fill="white"/>
<path d="M62.8642 132L75.4042 132L75.4042 125.73L62.8642 125.73L62.8642 132Z" fill="white"/>
<path d="M81.7163 50.2842L75.405 50.2842L75.405 125.73L81.7163 125.73L81.7163 81.7167L87.9863 81.7167L87.9863 75.4467L81.7163 75.4467L81.7163 50.2842Z" fill="white"/>
<path d="M81.7163 31.4326L87.9863 31.4326L87.9863 25.1214L81.7163 25.1214L81.7163 31.4326Z" fill="white"/>
<path d="M87.9858 44.0137L94.2558 44.0137L94.2558 31.4324L87.9858 31.4324L87.9858 44.0137Z" fill="white"/>
<path d="M87.9858 75.4463L94.2558 75.4463L94.2558 69.135L87.9858 69.135L87.9858 75.4463Z" fill="white"/>
<path d="M94.257 69.1348L100.568 69.1348L100.568 44.0135L94.257 44.0135L94.257 69.1348Z" fill="white"/>
</svg>
