<svg width="70" height="70" viewBox="0 0 70 70" fill="none" xmlns="http://www.w3.org/2000/svg">
<g clip-path="url(#clip0_823_1240)">
<path d="M34.5792 0.523438C20.3691 0.523438 16.2132 0.538097 15.4054 0.605113C12.4893 0.847522 10.6747 1.30669 8.69774 2.29098C7.17423 3.04753 5.97269 3.92449 4.78686 5.15381C2.62724 7.3957 1.31837 10.1538 0.844563 13.4324C0.614203 15.024 0.547189 15.3486 0.533577 23.4785C0.528341 26.1884 0.533577 29.7549 0.533577 34.5387C0.533577 48.7377 0.549283 52.8895 0.617344 53.6958C0.85294 56.5335 1.29795 58.3189 2.24033 60.2717C4.04133 64.01 7.48102 66.8163 11.5333 67.8634C12.9364 68.2246 14.4861 68.4236 16.4755 68.5178C17.3184 68.5545 25.9098 68.5807 34.5064 68.5807C43.1031 68.5807 51.6997 68.5702 52.5216 68.5283C54.8252 68.4199 56.1629 68.2403 57.6419 67.8581C61.7203 66.8058 65.0972 64.0414 66.9348 60.2508C67.8589 58.345 68.3275 56.4916 68.5395 53.8021C68.5856 53.2157 68.605 43.8665 68.605 34.5298C68.605 25.1916 68.584 15.8596 68.5379 15.2732C68.3233 12.5402 67.8547 10.7025 66.9008 8.7601C66.1181 7.17005 65.249 5.98261 63.9873 4.76847C61.7355 2.61768 58.9817 1.30878 55.7001 0.83548C54.1101 0.605637 53.7933 0.537574 45.6574 0.523438H34.5792Z" fill="url(#paint0_radial_823_1240)"/>
<path d="M34.5792 0.523438C20.3691 0.523438 16.2132 0.538097 15.4054 0.605113C12.4893 0.847522 10.6747 1.30669 8.69774 2.29098C7.17423 3.04753 5.97269 3.92449 4.78686 5.15381C2.62724 7.3957 1.31837 10.1538 0.844563 13.4324C0.614203 15.024 0.547189 15.3486 0.533577 23.4785C0.528341 26.1884 0.533577 29.7549 0.533577 34.5387C0.533577 48.7377 0.549283 52.8895 0.617344 53.6958C0.85294 56.5335 1.29795 58.3189 2.24033 60.2717C4.04133 64.01 7.48102 66.8163 11.5333 67.8634C12.9364 68.2246 14.4861 68.4236 16.4755 68.5178C17.3184 68.5545 25.9098 68.5807 34.5064 68.5807C43.1031 68.5807 51.6997 68.5702 52.5216 68.5283C54.8252 68.4199 56.1629 68.2403 57.6419 67.8581C61.7203 66.8058 65.0972 64.0414 66.9348 60.2508C67.8589 58.345 68.3275 56.4916 68.5395 53.8021C68.5856 53.2157 68.605 43.8665 68.605 34.5298C68.605 25.1916 68.584 15.8596 68.5379 15.2732C68.3233 12.5402 67.8547 10.7025 66.9008 8.7601C66.1181 7.17005 65.249 5.98261 63.9873 4.76847C61.7355 2.61768 58.9817 1.30878 55.7001 0.83548C54.1101 0.605637 53.7933 0.537574 45.6574 0.523438H34.5792Z" fill="url(#paint1_radial_823_1240)"/>
<path d="M34.5581 9.42285C27.7331 9.42285 26.8766 9.4527 24.196 9.57468C21.5207 9.6972 19.6946 10.1208 18.0967 10.7422C16.4439 11.3841 15.0419 12.2428 13.645 13.6401C12.2472 15.037 11.3886 16.4391 10.7446 18.0915C10.1216 19.6899 9.6975 21.5166 9.57709 24.1909C9.45719 26.8716 9.42578 27.7286 9.42578 34.5538C9.42578 41.3789 9.45615 42.2329 9.57761 44.9135C9.70064 47.5889 10.1242 49.4151 10.7451 51.013C11.3875 52.6659 12.2461 54.068 13.6435 55.4648C15.0398 56.8627 16.4418 57.7235 18.0936 58.3654C19.6925 58.9868 21.5192 59.4104 24.194 59.5329C26.8745 59.6549 27.7305 59.6847 34.5549 59.6847C41.3804 59.6847 42.2343 59.6549 44.9148 59.5329C47.5902 59.4104 49.4184 58.9868 51.0173 58.3654C52.6696 57.7235 54.0695 56.8627 55.4658 55.4648C56.8637 54.068 57.7223 52.6659 58.3663 51.0135C58.9841 49.4151 59.4081 47.5884 59.5338 44.914C59.6542 42.2334 59.6856 41.3789 59.6856 34.5538C59.6856 27.7286 59.6542 26.8721 59.5338 24.1915C59.4081 21.5161 58.9841 19.6899 58.3663 18.092C57.7223 16.4391 56.8637 15.037 55.4658 13.6401C54.068 12.2422 52.6701 11.3836 51.0157 10.7422C49.4137 10.1208 47.5865 9.6972 44.9112 9.57468C42.2306 9.4527 41.3772 9.42285 34.5502 9.42285H34.5581ZM32.3037 13.9517C32.9728 13.9506 33.7193 13.9517 34.5581 13.9517C41.2678 13.9517 42.0631 13.9757 44.7127 14.0962C47.1629 14.2082 48.4927 14.6176 49.3786 14.9616C50.5513 15.4171 51.3874 15.9616 52.2665 16.8412C53.146 17.7208 53.6905 18.5585 54.147 19.7312C54.491 20.6161 54.9009 21.9459 55.0125 24.3962C55.1329 27.0454 55.159 27.8412 55.159 34.548C55.159 41.2549 55.1329 42.0507 55.0125 44.6999C54.9004 47.1502 54.491 48.48 54.147 49.3648C53.6915 50.5376 53.146 51.3727 52.2665 52.2517C51.3869 53.1313 50.5518 53.6758 49.3786 54.1313C48.4938 54.4769 47.1629 54.8852 44.7127 54.9973C42.0636 55.1177 41.2678 55.1439 34.5581 55.1439C27.8478 55.1439 27.0525 55.1177 24.4034 54.9973C21.9532 54.8842 20.6234 54.4748 19.737 54.1308C18.5643 53.6753 17.7266 53.1308 16.847 52.2512C15.9675 51.3716 15.423 50.536 14.9665 49.3627C14.6225 48.4779 14.2126 47.1481 14.101 44.6978C13.9806 42.0486 13.9565 41.2528 13.9565 34.5418C13.9565 27.8307 13.9806 27.0391 14.101 24.3899C14.2131 21.9396 14.6225 20.6098 14.9665 19.7239C15.4219 18.5511 15.9675 17.7134 16.847 16.8339C17.7266 15.9543 18.5643 15.4098 19.737 14.9532C20.6228 14.6077 21.9532 14.1993 24.4034 14.0867C26.7216 13.982 27.62 13.9506 32.3037 13.9454V13.9517ZM47.9723 18.1244C46.3075 18.1244 44.9567 19.4737 44.9567 21.1391C44.9567 22.804 46.3075 24.1548 47.9723 24.1548C49.6372 24.1548 50.988 22.804 50.988 21.1391C50.988 19.4742 49.6372 18.1234 47.9723 18.1234V18.1244ZM34.5581 21.648C27.431 21.648 21.6527 27.4266 21.6527 34.5538C21.6527 41.681 27.431 47.457 34.5581 47.457C41.6851 47.457 47.4614 41.681 47.4614 34.5538C47.4614 27.4266 41.6851 21.648 34.5581 21.648ZM34.5581 26.1768C39.1841 26.1768 42.9348 29.9271 42.9348 34.5538C42.9348 39.18 39.1841 42.9308 34.5581 42.9308C29.9315 42.9308 26.1813 39.18 26.1813 34.5538C26.1813 29.9271 29.9315 26.1768 34.5581 26.1768Z" fill="white"/>
</g>
<defs>
<radialGradient id="paint0_radial_823_1240" cx="0" cy="0" r="1" gradientUnits="userSpaceOnUse" gradientTransform="translate(18.6134 73.8225) rotate(-90) scale(67.4497 62.7488)">
<stop stop-color="#FFDD55"/>
<stop offset="0.1" stop-color="#FFDD55"/>
<stop offset="0.5" stop-color="#FF543E"/>
<stop offset="1" stop-color="#C837AB"/>
</radialGradient>
<radialGradient id="paint1_radial_823_1240" cx="0" cy="0" r="1" gradientTransform="matrix(5.91926 29.5638 -121.89 24.4067 -10.8715 5.42616)" gradientUnits="userSpaceOnUse">
<stop stop-color="#3771C8"/>
<stop offset="0.128" stop-color="#3771C8"/>
<stop offset="1" stop-color="#6600FF" stop-opacity="0"/>
</radialGradient>
<clipPath id="clip0_823_1240">
<rect width="69.1101" height="69.1101" fill="white"/>
</clipPath>
</defs>
</svg>
