<svg width="70" height="70" viewBox="0 0 70 70" fill="none" xmlns="http://www.w3.org/2000/svg">
<g clip-path="url(#clip0_823_1238)">
<path d="M62.8585 0H6.25157C2.79896 0 0 2.79896 0 6.25157V62.8583C0 66.3111 2.79896 69.1101 6.25157 69.1101H62.8583C66.3111 69.1101 69.1101 66.3111 69.1101 62.8583V6.25157C69.1101 2.79896 66.3111 0 62.8585 0ZM21.3856 59.6742C21.3856 60.679 20.5711 61.4935 19.5663 61.4935H11.822C10.8172 61.4935 10.0027 60.679 10.0027 59.6742V27.2104C10.0027 26.2056 10.8172 25.3911 11.822 25.3911H19.5663C20.5711 25.3911 21.3856 26.2056 21.3856 27.2104V59.6742ZM15.6941 22.3309C11.6309 22.3309 8.33699 19.0369 8.33699 14.9737C8.33699 10.9105 11.6309 7.61658 15.6941 7.61658C19.7573 7.61658 23.0513 10.9105 23.0513 14.9737C23.0513 19.0369 19.7575 22.3309 15.6941 22.3309ZM61.8572 59.8208C61.8572 60.7445 61.1082 61.4935 60.1844 61.4935H51.8742C50.9504 61.4935 50.2014 60.7445 50.2014 59.8208V44.5934C50.2014 42.3218 50.8677 34.6392 44.265 34.6392C39.1435 34.6392 38.1046 39.8977 37.896 42.2576V59.8208C37.896 60.7445 37.1472 61.4935 36.2233 61.4935H28.1859C27.2621 61.4935 26.5131 60.7445 26.5131 59.8208V27.0638C26.5131 26.1401 27.2621 25.3911 28.1859 25.3911H36.2233C37.147 25.3911 37.896 26.1401 37.896 27.0638V29.8961C39.7951 27.0461 42.6174 24.8463 48.6265 24.8463C61.9333 24.8463 61.8572 37.2782 61.8572 44.1089V59.8208Z" fill="#0077B7"/>
</g>
<defs>
<clipPath id="clip0_823_1238">
<rect width="69.1101" height="69.1101" fill="white"/>
</clipPath>
</defs>
</svg>
