<svg width="110" height="113" viewBox="0 0 110 113" fill="none" xmlns="http://www.w3.org/2000/svg">
<g clip-path="url(#clip0_823_967)">
<path d="M96.9047 96.1035H91.6797V112.115H96.9047V96.1035Z" fill="#D21D8F"/>
<path d="M91.6773 90.7773H86.418V96.1028H91.6773V90.7773Z" fill="#D21D8F"/>
<path d="M86.4203 96.1035H81.1953V101.429H86.4203V96.1035Z" fill="#D21D8F"/>
<path d="M86.4203 85.417H81.1953V90.7775H86.4203V85.417Z" fill="#D21D8F"/>
<path d="M81.1891 101.429H75.9297V106.789H81.1891V101.429Z" fill="#D21D8F"/>
<path d="M81.1914 80.0938H70.707V85.4192H81.1914V80.0938Z" fill="#D21D8F"/>
<path d="M81.1891 37.3828H75.9297V53.3943H81.1891V37.3828Z" fill="#D21D8F"/>
<path d="M75.932 106.79H70.707V112.116H75.932V106.79Z" fill="#D21D8F"/>
<path d="M75.932 53.3945H70.707V58.72H75.932V53.3945Z" fill="#D21D8F"/>
<path d="M75.9344 32.0225H65.4844V37.383H75.9344V32.0225Z" fill="#D21D8F"/>
<path d="M70.7094 85.417H65.4844V90.7775H70.7094V85.417Z" fill="#D21D8F"/>
<path d="M70.707 74.7324H60.2227V80.0929H70.707V74.7324Z" fill="#D21D8F"/>
<path d="M70.7094 58.7207H65.4844V64.0812H70.7094V58.7207Z" fill="#D21D8F"/>
<path d="M65.482 90.7773H60.2227V96.1028H65.482V90.7773Z" fill="#D21D8F"/>
<path d="M65.482 64.0811H60.2227V69.4065H65.482V64.0811Z" fill="#D21D8F"/>
<path d="M65.482 37.3828H60.2227V42.7083H65.482V37.3828Z" fill="#D21D8F"/>
<path d="M60.225 96.1035H55V101.429H60.225V96.1035Z" fill="#D21D8F"/>
<path d="M60.225 69.4072H55V74.7327H60.225V69.4072Z" fill="#D21D8F"/>
<path d="M60.225 42.708H55V48.0335H60.225V42.708Z" fill="#D21D8F"/>
<path d="M55.0023 74.7324H49.7773V80.0929H55.0023V74.7324Z" fill="#D21D8F"/>
<path d="M55.0023 48.0342H49.7773V53.3947H55.0023V48.0342Z" fill="#D21D8F"/>
<path d="M49.775 80.0938H44.5156V85.4192H49.775V80.0938Z" fill="#D21D8F"/>
<path d="M49.775 53.3945H44.5156V58.72H49.775V53.3945Z" fill="#D21D8F"/>
<path d="M44.518 58.7207H39.293V64.0812H44.518V58.7207Z" fill="#D21D8F"/>
<path d="M44.518 42.708H39.293V53.394H44.518V42.708Z" fill="#D21D8F"/>
<path d="M39.2867 64.0811H34.0273V69.4065H39.2867V64.0811Z" fill="#D21D8F"/>
<path d="M34.0297 0V5.32548H28.8047V16.0115H34.0297V21.372H39.2891V26.6975H44.5141V32.023H49.7734V26.6975H54.9984V21.372H60.2234V16.0115H65.4828V5.32548H60.2234V0H49.7734V5.32548H44.5141V0H34.0297Z" fill="#D21D8F"/>
<path d="M39.2914 37.3828H23.582V42.7083H39.2914V37.3828Z" fill="#D21D8F"/>
<path d="M28.807 58.7207H23.582V80.0927H28.807V74.7322H34.032V69.4067H28.807V58.7207Z" fill="#D21D8F"/>
<path d="M23.5797 80.0938H18.3203V85.4192H23.5797V80.0938Z" fill="#D21D8F"/>
<path d="M23.5797 42.708H18.3203V58.7195H23.5797V42.708Z" fill="#D21D8F"/>
<path d="M18.3227 85.417H13.0977V112.114H18.3227V85.417Z" fill="#D21D8F"/>
</g>
<defs>
<clipPath id="clip0_823_967">
<rect width="110" height="112.115" fill="white"/>
</clipPath>
</defs>
</svg>
