<svg width="303" height="352" viewBox="0 0 303 352" fill="none" xmlns="http://www.w3.org/2000/svg">
<rect width="302.176" height="351.803" rx="4.34204" fill="#C2FF73"/>
<rect x="64.3008" y="189.415" width="155.822" height="4.21141" fill="#212121"/>
<rect x="95.8828" y="223.379" width="4.21119" height="4.21119" fill="#212121"/>
<rect x="83.25" y="223.379" width="4.21119" height="4.21119" fill="#212121"/>
<rect x="91.6758" y="227.59" width="4.21119" height="4.21119" fill="#212121"/>
<rect x="79.0391" y="227.59" width="4.21119" height="4.21119" fill="#212121"/>
<rect x="87.4609" y="231.802" width="4.21119" height="4.21119" fill="#212121"/>
<rect x="74.8281" y="231.802" width="4.21119" height="4.21119" fill="#212121"/>
<rect x="83.25" y="236.014" width="4.21119" height="4.21119" fill="#212121"/>
<rect x="70.6211" y="236.014" width="4.21119" height="4.21119" fill="#212121"/>
<rect x="87.4609" y="240.226" width="4.21119" height="4.21119" fill="#212121"/>
<rect x="74.8281" y="240.226" width="4.21119" height="4.21119" fill="#212121"/>
<rect x="91.6758" y="244.437" width="4.21119" height="4.21119" fill="#212121"/>
<rect x="79.043" y="244.436" width="4.21119" height="4.21119" fill="#212121"/>
<rect x="95.8867" y="248.647" width="4.21119" height="4.21119" fill="#212121"/>
<rect x="83.2578" y="248.646" width="4.21119" height="4.21119" fill="#212121"/>
<rect x="255.922" y="63.8301" width="4.21119" height="4.21119" fill="#212121"/>
<rect x="255.922" y="156.479" width="4.21119" height="4.21119" fill="#212121"/>
<rect x="255.922" y="72.2529" width="4.21119" height="4.21119" fill="#212121"/>
<rect x="255.922" y="164.901" width="4.21119" height="4.21119" fill="#212121"/>
<rect x="255.922" y="80.6758" width="4.21119" height="4.21119" fill="#212121"/>
<rect x="255.914" y="173.323" width="4.21119" height="4.21119" fill="#212121"/>
<rect x="255.914" y="89.0967" width="4.21119" height="4.21119" fill="#212121"/>
<rect x="255.914" y="181.747" width="4.21119" height="4.21119" fill="#212121"/>
<rect x="255.914" y="97.5195" width="4.21119" height="4.21119" fill="#212121"/>
<rect x="255.914" y="190.169" width="4.21119" height="4.21119" fill="#212121"/>
<rect x="255.914" y="105.943" width="4.21119" height="4.21119" fill="#212121"/>
<rect x="255.922" y="198.594" width="4.21119" height="4.21119" fill="#212121"/>
<rect x="255.922" y="114.364" width="4.21119" height="4.21119" fill="#212121"/>
<rect x="255.922" y="207.015" width="4.21119" height="4.21119" fill="#212121"/>
<rect x="255.922" y="122.79" width="4.21119" height="4.21119" fill="#212121"/>
<rect x="255.922" y="215.44" width="4.21119" height="4.21119" fill="#212121"/>
<rect x="255.914" y="249.486" width="4.21119" height="4.21119" fill="#212121"/>
<rect x="255.914" y="223.859" width="4.21119" height="4.21119" fill="#212121"/>
<rect x="255.914" y="131.21" width="4.21119" height="4.21119" fill="#212121"/>
<rect x="255.914" y="257.912" width="4.21119" height="4.21119" fill="#212121"/>
<rect x="255.914" y="232.284" width="4.21119" height="4.21119" fill="#212121"/>
<rect x="255.922" y="266.336" width="4.21119" height="4.21119" fill="#212121"/>
<rect x="255.922" y="274.757" width="4.21119" height="4.21119" fill="#212121"/>
<rect x="255.922" y="283" width="4.21119" height="4.21119" fill="#212121"/>
<rect x="255.922" y="291.423" width="4.21119" height="4.21119" fill="#212121"/>
<rect x="255.914" y="299.844" width="4.21119" height="4.21119" fill="#212121"/>
<rect x="255.922" y="308.089" width="4.21119" height="4.21119" fill="#212121"/>
<rect x="255.914" y="316.512" width="4.21119" height="4.21119" fill="#212121"/>
<rect x="154.844" y="316.512" width="4.21119" height="4.21119" fill="#212121"/>
<rect x="154.844" y="308.089" width="4.21119" height="4.21119" fill="#212121"/>
<rect x="154.848" y="299.668" width="4.21119" height="4.21119" fill="#212121"/>
<rect x="205.383" y="316.51" width="4.21119" height="4.21119" fill="#212121"/>
<rect x="205.387" y="308.09" width="4.21119" height="4.21119" fill="#212121"/>
<rect x="205.383" y="299.666" width="4.21119" height="4.21119" fill="#212121"/>
<rect x="104.312" y="316.513" width="4.21119" height="4.21119" fill="#212121"/>
<rect x="104.305" y="308.09" width="4.21119" height="4.21119" fill="#212121"/>
<rect x="104.305" y="299.666" width="4.21119" height="4.21119" fill="#212121"/>
<rect x="230.652" y="316.512" width="4.21119" height="4.21119" fill="#212121"/>
<rect x="230.652" y="308.09" width="4.21119" height="4.21119" fill="#212121"/>
<rect x="230.652" y="299.666" width="4.21119" height="4.21119" fill="#212121"/>
<rect x="129.578" y="316.512" width="4.21119" height="4.21119" fill="#212121"/>
<rect x="129.578" y="308.089" width="4.21119" height="4.21119" fill="#212121"/>
<rect x="129.57" y="299.666" width="4.21119" height="4.21119" fill="#212121"/>
<rect x="180.109" y="316.512" width="4.21119" height="4.21119" fill="#212121"/>
<rect x="180.109" y="308.087" width="4.21119" height="4.21119" fill="#212121"/>
<rect x="180.117" y="299.666" width="4.21119" height="4.21119" fill="#212121"/>
<rect x="79.043" y="316.512" width="4.21119" height="4.21119" fill="#212121"/>
<rect x="79.0391" y="308.09" width="4.21119" height="4.21119" fill="#212121"/>
<rect x="79.0391" y="299.666" width="4.21119" height="4.21119" fill="#212121"/>
<rect x="255.914" y="241.064" width="4.21119" height="4.21119" fill="#212121"/>
<rect x="255.914" y="139.633" width="4.21119" height="4.21119" fill="#212121"/>
<rect x="255.914" y="148.414" width="4.21119" height="4.21119" fill="#212121"/>
<rect x="264.34" y="63.8291" width="4.21119" height="4.21119" fill="#212121"/>
<rect x="264.34" y="156.48" width="4.21119" height="4.21119" fill="#212121"/>
<rect x="264.34" y="72.2529" width="4.21119" height="4.21119" fill="#212121"/>
<rect x="264.344" y="164.903" width="4.21119" height="4.21119" fill="#212121"/>
<rect x="264.344" y="80.6758" width="4.21119" height="4.21119" fill="#212121"/>
<rect x="264.344" y="173.324" width="4.21119" height="4.21119" fill="#212121"/>
<rect x="264.344" y="89.0977" width="4.21119" height="4.21119" fill="#212121"/>
<rect x="264.344" y="181.748" width="4.21119" height="4.21119" fill="#212121"/>
<rect x="264.34" y="97.5195" width="4.21119" height="4.21119" fill="#212121"/>
<rect x="264.34" y="190.169" width="4.21119" height="4.21119" fill="#212121"/>
<rect x="264.34" y="105.943" width="4.21119" height="4.21119" fill="#212121"/>
<rect x="264.344" y="215.44" width="4.21119" height="4.21119" fill="#212121"/>
<rect x="264.34" y="198.592" width="4.21119" height="4.21119" fill="#212121"/>
<rect x="264.344" y="223.861" width="4.21119" height="4.21119" fill="#212121"/>
<rect x="264.34" y="114.366" width="4.21119" height="4.21119" fill="#212121"/>
<rect x="264.34" y="249.488" width="4.21119" height="4.21119" fill="#212121"/>
<rect x="264.34" y="232.284" width="4.21119" height="4.21119" fill="#212121"/>
<rect x="264.34" y="257.911" width="4.21119" height="4.21119" fill="#212121"/>
<rect x="264.344" y="207.016" width="4.21119" height="4.21119" fill="#212121"/>
<rect x="264.34" y="266.335" width="4.21119" height="4.21119" fill="#212121"/>
<rect x="264.344" y="274.756" width="4.21119" height="4.21119" fill="#212121"/>
<rect x="264.344" y="282.999" width="4.21119" height="4.21119" fill="#212121"/>
<rect x="264.344" y="291.422" width="4.21119" height="4.21119" fill="#212121"/>
<rect x="264.344" y="299.844" width="4.21119" height="4.21119" fill="#212121"/>
<rect x="264.344" y="308.09" width="4.21119" height="4.21119" fill="#212121"/>
<rect x="264.344" y="316.512" width="4.21119" height="4.21119" fill="#212121"/>
<rect x="163.27" y="316.51" width="4.21119" height="4.21119" fill="#212121"/>
<rect x="163.27" y="308.089" width="4.21119" height="4.21119" fill="#212121"/>
<rect x="163.273" y="299.668" width="4.21119" height="4.21119" fill="#212121"/>
<rect x="213.801" y="316.512" width="4.21119" height="4.21119" fill="#212121"/>
<rect x="213.801" y="308.087" width="4.21119" height="4.21119" fill="#212121"/>
<rect x="213.805" y="299.666" width="4.21119" height="4.21119" fill="#212121"/>
<rect x="112.73" y="316.512" width="4.21119" height="4.21119" fill="#212121"/>
<rect x="112.73" y="308.089" width="4.21119" height="4.21119" fill="#212121"/>
<rect x="112.734" y="299.666" width="4.21119" height="4.21119" fill="#212121"/>
<rect x="239.074" y="316.51" width="4.21119" height="4.21119" fill="#212121"/>
<rect x="239.066" y="308.089" width="4.21119" height="4.21119" fill="#212121"/>
<rect x="239.074" y="299.666" width="4.21119" height="4.21119" fill="#212121"/>
<rect x="138" y="316.51" width="4.21119" height="4.21119" fill="#212121"/>
<rect x="138.008" y="308.089" width="4.21119" height="4.21119" fill="#212121"/>
<rect x="138" y="299.666" width="4.21119" height="4.21119" fill="#212121"/>
<rect x="188.535" y="316.512" width="4.21119" height="4.21119" fill="#212121"/>
<rect x="188.535" y="308.089" width="4.21119" height="4.21119" fill="#212121"/>
<rect x="188.539" y="299.666" width="4.21119" height="4.21119" fill="#212121"/>
<rect x="87.4609" y="316.512" width="4.21119" height="4.21119" fill="#212121"/>
<rect x="87.4609" y="308.089" width="4.21119" height="4.21119" fill="#212121"/>
<rect x="87.4609" y="299.666" width="4.21119" height="4.21119" fill="#212121"/>
<rect x="70.6211" y="316.512" width="4.21119" height="4.21119" fill="#212121"/>
<rect x="70.6211" y="308.09" width="4.21119" height="4.21119" fill="#212121"/>
<rect x="70.6133" y="299.666" width="4.21119" height="4.21119" fill="#212121"/>
<rect x="264.344" y="241.065" width="4.21119" height="4.21119" fill="#212121"/>
<rect x="264.344" y="122.79" width="4.21119" height="4.21119" fill="#212121"/>
<rect x="264.344" y="131.211" width="4.21119" height="4.21119" fill="#212121"/>
<rect x="264.34" y="139.633" width="4.21119" height="4.21119" fill="#212121"/>
<rect x="264.344" y="148.417" width="4.21119" height="4.21119" fill="#212121"/>
<rect x="272.762" y="63.8291" width="4.21119" height="4.21119" fill="#212121"/>
<rect x="272.762" y="156.479" width="4.21119" height="4.21119" fill="#212121"/>
<rect x="272.762" y="72.252" width="4.21119" height="4.21119" fill="#212121"/>
<rect x="272.762" y="164.903" width="4.21119" height="4.21119" fill="#212121"/>
<rect x="272.762" y="80.6738" width="4.21119" height="4.21119" fill="#212121"/>
<rect x="272.77" y="173.323" width="4.21119" height="4.21119" fill="#212121"/>
<rect x="272.77" y="89.0967" width="4.21119" height="4.21119" fill="#212121"/>
<rect x="272.762" y="215.438" width="4.21119" height="4.21119" fill="#212121"/>
<rect x="272.77" y="181.747" width="4.21119" height="4.21119" fill="#212121"/>
<rect x="272.77" y="223.861" width="4.21119" height="4.21119" fill="#212121"/>
<rect x="272.77" y="97.5225" width="4.21119" height="4.21119" fill="#212121"/>
<rect x="272.77" y="249.488" width="4.21119" height="4.21119" fill="#212121"/>
<rect x="272.77" y="232.284" width="4.21119" height="4.21119" fill="#212121"/>
<rect x="272.762" y="257.911" width="4.21119" height="4.21119" fill="#212121"/>
<rect x="272.77" y="190.169" width="4.21119" height="4.21119" fill="#212121"/>
<rect x="272.762" y="266.335" width="4.21119" height="4.21119" fill="#212121"/>
<rect x="272.762" y="274.756" width="4.21119" height="4.21119" fill="#212121"/>
<rect x="272.762" y="282.999" width="4.21119" height="4.21119" fill="#212121"/>
<rect x="272.762" y="291.422" width="4.21119" height="4.21119" fill="#212121"/>
<rect x="272.77" y="299.844" width="4.21119" height="4.21119" fill="#212121"/>
<rect x="272.77" y="308.089" width="4.21119" height="4.21119" fill="#212121"/>
<rect x="272.77" y="316.512" width="4.21119" height="4.21119" fill="#212121"/>
<rect x="171.691" y="316.51" width="4.21119" height="4.21119" fill="#212121"/>
<rect x="171.688" y="308.089" width="4.21119" height="4.21119" fill="#212121"/>
<rect x="171.688" y="299.665" width="4.21119" height="4.21119" fill="#212121"/>
<rect x="222.223" y="316.512" width="4.21119" height="4.21119" fill="#212121"/>
<rect x="222.23" y="308.09" width="4.21119" height="4.21119" fill="#212121"/>
<rect x="222.23" y="299.666" width="4.21119" height="4.21119" fill="#212121"/>
<rect x="121.152" y="316.512" width="4.21119" height="4.21119" fill="#212121"/>
<rect x="121.152" y="308.089" width="4.21119" height="4.21119" fill="#212121"/>
<rect x="121.152" y="299.666" width="4.21119" height="4.21119" fill="#212121"/>
<rect x="247.492" y="316.51" width="4.21119" height="4.21119" fill="#212121"/>
<rect x="247.496" y="308.089" width="4.21119" height="4.21119" fill="#212121"/>
<rect x="247.496" y="299.666" width="4.21119" height="4.21119" fill="#212121"/>
<rect x="146.418" y="316.512" width="4.21119" height="4.21119" fill="#212121"/>
<rect x="146.426" y="308.089" width="4.21119" height="4.21119" fill="#212121"/>
<rect x="146.426" y="299.666" width="4.21119" height="4.21119" fill="#212121"/>
<rect x="196.957" y="316.51" width="4.21119" height="4.21119" fill="#212121"/>
<rect x="196.965" y="308.09" width="4.21119" height="4.21119" fill="#212121"/>
<rect x="196.965" y="299.668" width="4.21119" height="4.21119" fill="#212121"/>
<rect x="95.8867" y="316.512" width="4.21119" height="4.21119" fill="#212121"/>
<rect x="95.8867" y="308.089" width="4.21119" height="4.21119" fill="#212121"/>
<rect x="95.8867" y="299.666" width="4.21119" height="4.21119" fill="#212121"/>
<rect x="272.77" y="241.065" width="4.21119" height="4.21119" fill="#212121"/>
<rect x="272.762" y="105.943" width="4.21119" height="4.21119" fill="#212121"/>
<rect x="272.762" y="198.594" width="4.21119" height="4.21119" fill="#212121"/>
<rect x="272.762" y="114.364" width="4.21119" height="4.21119" fill="#212121"/>
<rect x="272.762" y="207.015" width="4.21119" height="4.21119" fill="#212121"/>
<rect x="272.762" y="122.788" width="4.21119" height="4.21119" fill="#212121"/>
<rect x="272.77" y="131.21" width="4.21119" height="4.21119" fill="#212121"/>
<rect x="272.77" y="139.633" width="4.21119" height="4.21119" fill="#212121"/>
<rect x="272.77" y="148.417" width="4.21119" height="4.21119" fill="#212121"/>
<rect x="24.2891" y="291.42" width="227.416" height="4.21141" fill="#212121"/>
<rect x="24.293" y="30.1387" width="227.416" height="4.21141" fill="#212121"/>
<rect x="251.707" y="30.7969" width="264.658" height="4.21141" transform="rotate(90 251.707 30.7969)" fill="#212121"/>
<rect x="28.5078" y="30.1387" width="262.37" height="4.21141" transform="rotate(90 28.5078 30.1387)" fill="#212121"/>
<path d="M177.942 107.034H173.641V124.267H177.942V107.034Z" fill="#212121"/>
<path d="M117.591 107.035H121.892V102.706H126.221V98.4047H143.453V102.706H147.782V98.4047H160.713V102.706H165.014V137.198H169.344V128.596H173.644V124.267H169.344V107.035H173.644V102.706H169.344V85.4737H165.014V89.7746H160.713V85.4737H152.083V81.1445H121.892V85.4737H117.591V89.7746H113.29V98.4047H108.961V85.4737H104.66V98.4047H100.359V102.706H117.591V107.035Z" fill="#212121"/>
<path d="M165.019 137.201H160.719V141.53H165.019V137.201Z" fill="#212121"/>
<path d="M165.019 81.1465H160.719V85.4755H165.019V81.1465Z" fill="#212121"/>
<path d="M160.716 128.598H156.387V132.898H160.716V128.598Z" fill="#212121"/>
<path d="M160.716 115.638H156.387V124.268H160.716V115.638Z" fill="#212121"/>
<path d="M160.724 76.8467H156.395V81.1474H160.724V76.8467Z" fill="#212121"/>
<path d="M121.892 141.529V150.174H113.29V154.474H104.66V158.775H173.644V154.474H165.014V150.174H156.384V145.844H160.713V141.543L121.892 141.529ZM152.083 154.46H134.851V150.174H126.221V145.844H152.097L152.083 154.46Z" fill="#212121"/>
<path d="M156.385 132.897H143.453V137.198H156.385V132.897Z" fill="#212121"/>
<path d="M143.457 128.6H139.156V132.9H143.457V128.6Z" fill="#212121"/>
<path d="M139.16 115.64H134.859V124.27H139.16V115.64Z" fill="#212121"/>
<path d="M143.453 102.705H134.852V107.034H143.453V102.705Z" fill="#212121"/>
<path d="M126.224 107.036H121.895V124.269H126.224V107.036Z" fill="#212121"/>
<path d="M156.38 72.5459H117.586V76.8469H156.38V72.5459Z" fill="#212121"/>
<path d="M121.891 137.2H117.59V141.529H121.891V137.2Z" fill="#212121"/>
<path d="M121.891 124.269H117.59V128.598H121.891V124.269Z" fill="#212121"/>
<path d="M100.363 128.598V132.899H113.295V137.2H117.596V128.598H100.363Z" fill="#212121"/>
<path d="M117.594 76.8467H113.293V81.1474H117.594V76.8467Z" fill="#212121"/>
<path d="M113.294 81.1465H108.965V85.4755H113.294V81.1465Z" fill="#212121"/>
<path d="M108.961 107.036H104.66V111.337H108.961V107.036Z" fill="#212121"/>
<path d="M104.66 111.336H100.359V119.966H104.66V111.336Z" fill="#212121"/>
<path d="M100.356 124.269H96.0273V128.598H100.356V124.269Z" fill="#212121"/>
<path d="M100.356 102.705H96.0273V107.034H100.356V102.705Z" fill="#212121"/>
<path d="M96.0277 107.036H91.7266V124.269H96.0277V107.036Z" fill="#212121"/>
<path d="M70.0571 179.894V169.551H73.6769L75.4646 178.564H75.7305L77.5182 169.551H81.1379V179.894H79.2468V170.985H78.9809L77.2079 179.894H73.9871L72.2142 170.985H71.9483V179.894H70.0571ZM86.6316 180.1C85.9027 180.1 85.2477 179.953 84.6666 179.657C84.0854 179.362 83.6274 178.933 83.2925 178.372C82.9577 177.81 82.7902 177.136 82.7902 176.348V176.111C82.7902 175.323 82.9577 174.649 83.2925 174.087C83.6274 173.526 84.0854 173.097 84.6666 172.802C85.2477 172.506 85.9027 172.359 86.6316 172.359C87.3604 172.359 88.0154 172.506 88.5965 172.802C89.1777 173.097 89.6357 173.526 89.9706 174.087C90.3054 174.649 90.4729 175.323 90.4729 176.111V176.348C90.4729 177.136 90.3054 177.81 89.9706 178.372C89.6357 178.933 89.1777 179.362 88.5965 179.657C88.0154 179.953 87.3604 180.1 86.6316 180.1ZM86.6316 178.446C87.2028 178.446 87.6756 178.263 88.0499 177.899C88.4242 177.525 88.6113 176.993 88.6113 176.303V176.156C88.6113 175.466 88.4242 174.939 88.0499 174.575C87.6855 174.2 87.2127 174.013 86.6316 174.013C86.0603 174.013 85.5875 174.2 85.2132 174.575C84.8389 174.939 84.6518 175.466 84.6518 176.156V176.303C84.6518 176.993 84.8389 177.525 85.2132 177.899C85.5875 178.263 86.0603 178.446 86.6316 178.446ZM95.678 180.1C94.9491 180.1 94.2941 179.953 93.713 179.657C93.1319 179.362 92.6738 178.933 92.339 178.372C92.0041 177.81 91.8366 177.136 91.8366 176.348V176.111C91.8366 175.323 92.0041 174.649 92.339 174.087C92.6738 173.526 93.1319 173.097 93.713 172.802C94.2941 172.506 94.9491 172.359 95.678 172.359C96.4068 172.359 97.0618 172.506 97.643 172.802C98.2241 173.097 98.6821 173.526 99.017 174.087C99.3519 174.649 99.5193 175.323 99.5193 176.111V176.348C99.5193 177.136 99.3519 177.81 99.017 178.372C98.6821 178.933 98.2241 179.362 97.643 179.657C97.0618 179.953 96.4068 180.1 95.678 180.1ZM95.678 178.446C96.2492 178.446 96.722 178.263 97.0963 177.899C97.4706 177.525 97.6577 176.993 97.6577 176.303V176.156C97.6577 175.466 97.4706 174.939 97.0963 174.575C96.7319 174.2 96.2591 174.013 95.678 174.013C95.1067 174.013 94.6339 174.2 94.2596 174.575C93.8853 174.939 93.6982 175.466 93.6982 176.156V176.303C93.6982 176.993 93.8853 177.525 94.2596 177.899C94.6339 178.263 95.1067 178.446 95.678 178.446ZM101.238 179.894V172.565H103.07V173.526H103.336C103.454 173.27 103.675 173.028 104 172.802C104.325 172.565 104.818 172.447 105.478 172.447C106.049 172.447 106.547 172.58 106.97 172.846C107.403 173.102 107.738 173.462 107.975 173.925C108.211 174.378 108.329 174.91 108.329 175.52V179.894H106.468V175.668C106.468 175.117 106.33 174.703 106.054 174.427C105.788 174.151 105.404 174.013 104.902 174.013C104.33 174.013 103.887 174.205 103.572 174.59C103.257 174.964 103.099 175.491 103.099 176.17V179.894H101.238ZM113.674 176.968V175.284H118.047V176.968H113.674ZM126.353 180.1C125.289 180.1 124.442 179.81 123.812 179.229C123.191 178.648 122.881 177.835 122.881 176.791V175.816H124.831V176.791C124.831 177.254 124.959 177.618 125.215 177.884C125.471 178.14 125.831 178.268 126.294 178.268C126.727 178.268 127.062 178.14 127.299 177.884C127.545 177.628 127.668 177.264 127.668 176.791V171.324H125.895V169.551H130.8V171.324H129.618V176.791C129.618 177.865 129.328 178.687 128.746 179.258C128.165 179.82 127.368 180.1 126.353 180.1ZM135.384 180.1C134.655 180.1 134 179.953 133.419 179.657C132.838 179.362 132.38 178.933 132.045 178.372C131.71 177.81 131.543 177.136 131.543 176.348V176.111C131.543 175.323 131.71 174.649 132.045 174.087C132.38 173.526 132.838 173.097 133.419 172.802C134 172.506 134.655 172.359 135.384 172.359C136.113 172.359 136.768 172.506 137.349 172.802C137.93 173.097 138.388 173.526 138.723 174.087C139.058 174.649 139.225 175.323 139.225 176.111V176.348C139.225 177.136 139.058 177.81 138.723 178.372C138.388 178.933 137.93 179.362 137.349 179.657C136.768 179.953 136.113 180.1 135.384 180.1ZM135.384 178.446C135.955 178.446 136.428 178.263 136.802 177.899C137.177 177.525 137.364 176.993 137.364 176.303V176.156C137.364 175.466 137.177 174.939 136.802 174.575C136.438 174.2 135.965 174.013 135.384 174.013C134.813 174.013 134.34 174.2 133.966 174.575C133.591 174.939 133.404 175.466 133.404 176.156V176.303C133.404 176.993 133.591 177.525 133.966 177.899C134.34 178.263 134.813 178.446 135.384 178.446ZM140.944 179.894V172.565H142.776V173.526H143.042C143.16 173.27 143.382 173.028 143.707 172.802C144.032 172.565 144.524 172.447 145.184 172.447C145.755 172.447 146.253 172.58 146.676 172.846C147.11 173.102 147.444 173.462 147.681 173.925C147.917 174.378 148.035 174.91 148.035 175.52V179.894H146.174V175.668C146.174 175.117 146.036 174.703 145.76 174.427C145.494 174.151 145.11 174.013 144.608 174.013C144.037 174.013 143.593 174.205 143.278 174.59C142.963 174.964 142.805 175.491 142.805 176.17V179.894H140.944ZM152.323 180.1C151.801 180.1 151.333 180.012 150.92 179.834C150.506 179.647 150.176 179.381 149.93 179.037C149.693 178.682 149.575 178.254 149.575 177.751C149.575 177.249 149.693 176.83 149.93 176.495C150.176 176.151 150.511 175.895 150.934 175.727C151.368 175.55 151.86 175.461 152.412 175.461H154.421V175.048C154.421 174.703 154.313 174.422 154.096 174.205C153.879 173.979 153.535 173.866 153.062 173.866C152.599 173.866 152.254 173.974 152.028 174.191C151.801 174.397 151.653 174.668 151.584 175.003L149.871 174.427C149.989 174.053 150.176 173.713 150.432 173.408C150.698 173.092 151.048 172.841 151.481 172.654C151.924 172.457 152.461 172.359 153.091 172.359C154.057 172.359 154.82 172.6 155.381 173.083C155.943 173.565 156.224 174.265 156.224 175.181V177.914C156.224 178.209 156.361 178.357 156.637 178.357H157.228V179.894H155.987C155.623 179.894 155.322 179.805 155.086 179.628C154.85 179.45 154.731 179.214 154.731 178.918V178.904H154.451C154.411 179.022 154.323 179.179 154.185 179.376C154.047 179.564 153.83 179.731 153.535 179.879C153.239 180.027 152.835 180.1 152.323 180.1ZM152.648 178.593C153.17 178.593 153.594 178.451 153.919 178.165C154.254 177.869 154.421 177.48 154.421 176.998V176.85H152.545C152.2 176.85 151.929 176.924 151.732 177.072C151.535 177.219 151.437 177.426 151.437 177.692C151.437 177.958 151.54 178.175 151.747 178.342C151.954 178.51 152.254 178.593 152.648 178.593ZM158.589 179.894V169.551H160.451V173.467H160.717C160.796 173.309 160.919 173.152 161.086 172.994C161.254 172.836 161.475 172.708 161.751 172.61C162.037 172.501 162.396 172.447 162.83 172.447C163.401 172.447 163.898 172.58 164.322 172.846C164.755 173.102 165.09 173.462 165.326 173.925C165.563 174.378 165.681 174.91 165.681 175.52V179.894H163.819V175.668C163.819 175.117 163.682 174.703 163.406 174.427C163.14 174.151 162.756 174.013 162.253 174.013C161.682 174.013 161.239 174.205 160.924 174.59C160.608 174.964 160.451 175.491 160.451 176.17V179.894H158.589ZM171.386 179.894V169.551H173.336V173.659H173.602L176.956 169.551H179.452L175.138 174.649L179.6 179.894H177.029L173.602 175.698H173.336V179.894H171.386ZM182.968 180.1C182.446 180.1 181.979 180.012 181.565 179.834C181.151 179.647 180.821 179.381 180.575 179.037C180.339 178.682 180.22 178.254 180.22 177.751C180.22 177.249 180.339 176.83 180.575 176.495C180.821 176.151 181.156 175.895 181.58 175.727C182.013 175.55 182.505 175.461 183.057 175.461H185.066V175.048C185.066 174.703 184.958 174.422 184.741 174.205C184.525 173.979 184.18 173.866 183.707 173.866C183.244 173.866 182.899 173.974 182.673 174.191C182.446 174.397 182.299 174.668 182.23 175.003L180.516 174.427C180.634 174.053 180.821 173.713 181.077 173.408C181.343 173.092 181.693 172.841 182.126 172.654C182.569 172.457 183.106 172.359 183.737 172.359C184.702 172.359 185.465 172.6 186.027 173.083C186.588 173.565 186.869 174.265 186.869 175.181V177.914C186.869 178.209 187.007 178.357 187.283 178.357H187.873V179.894H186.632C186.268 179.894 185.968 179.805 185.731 179.628C185.495 179.45 185.377 179.214 185.377 178.918V178.904H185.096C185.056 179.022 184.968 179.179 184.83 179.376C184.692 179.564 184.475 179.731 184.18 179.879C183.884 180.027 183.481 180.1 182.968 180.1ZM183.293 178.593C183.815 178.593 184.239 178.451 184.564 178.165C184.899 177.869 185.066 177.48 185.066 176.998V176.85H183.19C182.845 176.85 182.574 176.924 182.377 177.072C182.18 177.219 182.082 177.426 182.082 177.692C182.082 177.958 182.185 178.175 182.392 178.342C182.599 178.51 182.899 178.593 183.293 178.593ZM188.736 176.259V176.023C188.736 175.254 188.888 174.599 189.194 174.058C189.499 173.506 189.903 173.087 190.405 172.802C190.917 172.506 191.474 172.359 192.075 172.359C192.744 172.359 193.252 172.477 193.596 172.713C193.941 172.95 194.192 173.196 194.35 173.452H194.616V172.565H196.448V181.194C196.448 181.696 196.3 182.095 196.005 182.39C195.709 182.696 195.315 182.848 194.823 182.848H189.918V181.223H194.173C194.448 181.223 194.586 181.076 194.586 180.78V178.874H194.32C194.222 179.032 194.084 179.194 193.907 179.362C193.729 179.519 193.493 179.652 193.198 179.761C192.902 179.869 192.528 179.923 192.075 179.923C191.474 179.923 190.917 179.78 190.405 179.495C189.903 179.199 189.499 178.781 189.194 178.239C188.888 177.687 188.736 177.027 188.736 176.259ZM192.607 178.298C193.178 178.298 193.656 178.116 194.04 177.751C194.424 177.387 194.616 176.875 194.616 176.215V176.067C194.616 175.397 194.424 174.885 194.04 174.53C193.665 174.166 193.188 173.984 192.607 173.984C192.035 173.984 191.558 174.166 191.173 174.53C190.789 174.885 190.597 175.397 190.597 176.067V176.215C190.597 176.875 190.789 177.387 191.173 177.751C191.558 178.116 192.035 178.298 192.607 178.298ZM201.851 180.1C201.122 180.1 200.477 179.948 199.915 179.642C199.364 179.327 198.93 178.889 198.615 178.327C198.31 177.756 198.157 177.086 198.157 176.318V176.141C198.157 175.373 198.31 174.708 198.615 174.146C198.921 173.575 199.349 173.137 199.901 172.831C200.452 172.516 201.092 172.359 201.821 172.359C202.54 172.359 203.166 172.521 203.698 172.846C204.23 173.161 204.643 173.605 204.939 174.176C205.234 174.737 205.382 175.392 205.382 176.141V176.776H200.048C200.068 177.278 200.255 177.687 200.61 178.002C200.964 178.318 201.398 178.475 201.91 178.475C202.432 178.475 202.816 178.362 203.062 178.135C203.309 177.909 203.496 177.658 203.624 177.382L205.146 178.18C205.008 178.436 204.806 178.717 204.54 179.022C204.284 179.317 203.939 179.573 203.506 179.79C203.072 179.997 202.521 180.1 201.851 180.1ZM200.063 175.387H203.491C203.451 174.964 203.279 174.624 202.974 174.368C202.678 174.112 202.289 173.984 201.807 173.984C201.304 173.984 200.905 174.112 200.61 174.368C200.314 174.624 200.132 174.964 200.063 175.387ZM207.039 179.894V172.565H208.871V173.526H209.137C209.255 173.27 209.477 173.028 209.802 172.802C210.127 172.565 210.619 172.447 211.279 172.447C211.85 172.447 212.348 172.58 212.771 172.846C213.205 173.102 213.54 173.462 213.776 173.925C214.012 174.378 214.131 174.91 214.131 175.52V179.894H212.269V175.668C212.269 175.117 212.131 174.703 211.855 174.427C211.589 174.151 211.205 174.013 210.703 174.013C210.132 174.013 209.688 174.205 209.373 174.59C209.058 174.964 208.9 175.491 208.9 176.17V179.894H207.039Z" fill="#212121"/>
<path d="M235.068 46.9367H232.761V44.6299H225.871V46.9367H223.579V49.2284H221.273V46.9367H218.981V44.6299H212.091V46.9367H209.799V49.2284H207.492V56.1186H209.799V58.4254H212.091V60.7171H214.382V63.0089H216.689V65.3157H218.981V67.6074H221.273V69.8991H223.579V67.6074H225.871V65.3157H228.178V63.0089H230.47V60.7171H232.761V58.4254H235.068V56.1186H237.36V49.2284H235.068V46.9367ZM232.761 56.1186H230.47V51.5201H225.871V49.2284H230.47V51.5201H232.761V56.1186Z" fill="#212121"/>
<path d="M162.86 231.555V226.538H160.359V221.537H157.859V219.02H155.342V216.519H150.341V214.019H145.323V211.502H132.788V214.019H127.77V216.519H122.753V219.02H120.252V221.537H117.752V226.538H115.235V231.555H112.734V244.091H115.235V249.109H117.752V254.126H120.252V256.627H122.753V259.127H127.77V261.644H132.788V264.145H145.323V261.644H150.341V259.127H155.342V256.627H157.859V254.126H160.359V249.109H162.86V244.091H165.377V231.555H162.86ZM142.806 221.537H147.824V224.037H150.341V226.538H152.841V229.055H155.342V234.072H152.841V229.055H150.341V226.538H147.824V224.037H142.806V221.537ZM155.342 239.074V244.091H152.841V246.592H150.341V249.109H147.824V251.609H145.323V254.126H140.306V251.609H145.323V249.109H147.824V246.592H150.341V244.091H152.841V239.074H155.342ZM120.252 229.055V236.573H117.752V229.055H120.252V226.538H122.753V224.037H125.27V221.537H127.77V219.02H130.287V216.519H137.805V219.02H130.287V221.537H127.77V224.037H125.27V226.538H122.753V229.055H120.252ZM137.805 221.537V224.037H132.788V226.538H130.287V229.055H127.77V231.555H125.27V236.573H122.753V231.555H125.27V229.055H127.77V226.538H130.287V224.037H132.788V221.537H137.805ZM135.288 254.126H130.287V251.609H127.77V249.109H125.27V246.592H122.753V241.59H125.27V246.592H127.77V249.109H130.287V251.609H135.288V254.126ZM132.788 241.59V234.072H135.288V231.555H142.806V234.072H145.323V241.59H142.806V244.091H135.288V241.59H132.788ZM160.359 246.592H157.859V249.109H155.342V251.609H152.841V254.126H150.341V256.627H147.824V259.127H140.306V256.627H147.824V254.126H150.341V251.609H152.841V249.109H155.342V246.592H157.859V239.074H160.359V246.592Z" fill="#212121"/>
<path d="M140.308 236.575H137.809V239.075H140.308V236.575Z" fill="#212121"/>
<rect width="4.21119" height="4.21119" transform="matrix(-1 0 0 1 182.219 223.379)" fill="#212121"/>
<rect width="4.21119" height="4.21119" transform="matrix(-1 0 0 1 194.855 223.379)" fill="#212121"/>
<rect width="4.21119" height="4.21119" transform="matrix(-1 0 0 1 186.43 227.59)" fill="#212121"/>
<rect width="4.21119" height="4.21119" transform="matrix(-1 0 0 1 199.066 227.59)" fill="#212121"/>
<rect width="4.21119" height="4.21119" transform="matrix(-1 0 0 1 190.637 231.801)" fill="#212121"/>
<rect width="4.21119" height="4.21119" transform="matrix(-1 0 0 1 203.277 231.802)" fill="#212121"/>
<rect width="4.21119" height="4.21119" transform="matrix(-1 0 0 1 194.855 236.013)" fill="#212121"/>
<rect width="4.21119" height="4.21119" transform="matrix(-1 0 0 1 207.484 236.014)" fill="#212121"/>
<rect width="4.21119" height="4.21119" transform="matrix(-1 0 0 1 190.637 240.226)" fill="#212121"/>
<rect width="4.21119" height="4.21119" transform="matrix(-1 0 0 1 203.273 240.226)" fill="#212121"/>
<rect width="4.21119" height="4.21119" transform="matrix(-1 0 0 1 186.43 244.437)" fill="#212121"/>
<rect width="4.21119" height="4.21119" transform="matrix(-1 0 0 1 199.062 244.436)" fill="#212121"/>
<rect width="4.21119" height="4.21119" transform="matrix(-1 0 0 1 182.219 248.646)" fill="#212121"/>
<rect width="4.21119" height="4.21119" transform="matrix(-1 0 0 1 194.855 248.646)" fill="#212121"/>
</svg>
