<svg width="42" height="42" viewBox="0 0 42 42" fill="none" xmlns="http://www.w3.org/2000/svg">
<g clip-path="url(#clip0_858_149)">
<path d="M41.9992 4.00293H37.9961V5.99793H41.9992V4.00293Z" fill="#000001"/>
<path d="M41.9992 36.002H37.9961V37.997H41.9992V36.002Z" fill="#000001"/>
<path d="M37.995 0H36V4.00312H37.995V0Z" fill="#000001"/>
<path d="M37.995 37.9971H36V42.0002H37.995V37.9971Z" fill="#000001"/>
<path d="M36.0038 5.99805H6V36.0018H36.0038V5.99805ZM34.0088 34.0068H8.00812V8.00617H34.0088V34.0068Z" fill="#000001"/>
<path d="M18.0078 31.9985H31.9991V17.9941H18.0078V31.9985ZM20.0028 20.0023H30.0041V30.0035H20.0028V20.0023Z" fill="#000001"/>
<path d="M12.0081 24.0054H14.0031V26.0004H15.9981V15.9991H25.9994V14.0041H24.0044V11.996H21.9963V10.001H14.0031V11.996H12.0081V14.0041H10V21.9972H12.0081V24.0054Z" fill="#000001"/>
<path d="M5.99891 0H4.00391V4.00312H5.99891V0Z" fill="#000001"/>
<path d="M5.99891 37.9971H4.00391V42.0002H5.99891V37.9971Z" fill="#000001"/>
<path d="M4.00312 4.00293H0V5.99793H4.00312V4.00293Z" fill="#000001"/>
<path d="M4.00312 36.002H0V37.997H4.00312V36.002Z" fill="#000001"/>
</g>
<defs>
<clipPath id="clip0_858_149">
<rect width="42" height="42" fill="white"/>
</clipPath>
</defs>
</svg>
