<svg width="77" height="54" viewBox="0 0 77 54" fill="none" xmlns="http://www.w3.org/2000/svg">
<g clip-path="url(#clip0_823_1233)">
<g clip-path="url(#clip1_823_1233)">
<path d="M74.4318 8.36409C73.5558 5.0701 70.9835 2.48151 67.7107 1.59976C61.7846 4.78867e-07 38.0105 0 38.0105 0C38.0105 0 14.2368 4.78867e-07 8.31051 1.59976C5.03764 2.48151 2.46562 5.0701 1.58951 8.36409C4.75801e-07 14.3285 0 26.7802 0 26.7802C0 26.7802 4.75801e-07 39.2319 1.58951 45.1963C2.46562 48.4903 5.03764 51.0789 8.31051 51.9605C14.2368 53.5603 38.0105 53.5603 38.0105 53.5603C38.0105 53.5603 61.7846 53.5603 67.7107 51.9605C70.9835 51.0789 73.5558 48.4903 74.4318 45.1963C76.0214 39.2319 76.0214 26.7802 76.0214 26.7802C76.0214 26.7802 76.015 14.3285 74.4318 8.36409Z" fill="#FF0000"/>
<path d="M30.4102 38.2564L50.1602 26.7811L30.4102 15.3057V38.2564Z" fill="white"/>
</g>
</g>
<defs>
<clipPath id="clip0_823_1233">
<rect width="76.0211" height="53.5603" fill="white"/>
</clipPath>
<clipPath id="clip1_823_1233">
<rect width="76.0211" height="53.5603" fill="white"/>
</clipPath>
</defs>
</svg>
